<svg width="411" height="731" viewBox="0 0 411 731" fill="none" xmlns="http://www.w3.org/2000/svg">
<rect width="411" height="731" fill="url(#paint0_linear_3237_27771)"/>
<path d="M61.2862 375.007L84.6922 382.818L82.5207 389.325L73.125 386.19L70.477 394.125L79.8727 397.26L77.7011 403.767L54.295 395.956L56.4666 389.449L65.2646 392.385L67.9126 384.45L59.1146 381.514L61.2862 375.007Z" fill="#504E62"/>
<path d="M91.4455 368.787C90.3274 370.808 88.83 372.407 86.9533 373.582C85.0563 374.745 82.9939 375.365 80.7662 375.439C78.5294 375.481 76.3493 374.915 74.2259 373.741C72.1024 372.566 70.4747 371.026 69.3425 369.12C68.2013 367.182 67.6298 365.106 67.628 362.891C67.6263 360.677 68.1845 358.559 69.3026 356.538C70.4321 354.496 71.9295 352.898 73.7948 351.743C75.6715 350.568 77.7282 349.959 79.965 349.917C82.1814 349.863 84.3513 350.423 86.4747 351.598C88.5981 352.773 90.2361 354.319 91.3887 356.236C92.5208 358.142 93.0979 360.208 93.1201 362.434C93.1219 364.648 92.5637 366.766 91.4455 368.787ZM85.8715 365.704C86.7186 364.172 86.8847 362.691 86.3699 361.26C85.8664 359.808 84.7776 358.619 83.1033 357.693C81.3882 356.744 79.7922 356.448 78.3152 356.804C76.8291 357.128 75.6625 358.056 74.8154 359.588C73.957 361.139 73.7852 362.631 74.3 364.062C74.7944 365.482 75.8991 366.667 77.6142 367.616C79.3089 368.553 80.8993 368.859 82.3854 368.535C83.8511 368.199 85.0131 367.255 85.8715 365.704Z" fill="#504E62"/>
<path d="M112.95 338.39L108.599 343.694L92.1439 342.009L102.805 350.756L98.4539 356.06L79.3775 340.409L83.7287 335.105L100.319 336.901L89.5228 328.043L93.874 322.739L112.95 338.39Z" fill="#504E62"/>
<path d="M110.445 315.063L112.966 318.201L119.106 313.27L122.371 317.336L116.231 322.267L119.014 325.733L125.973 320.144L129.414 324.428L117.107 334.313L101.656 315.074L113.963 305.19L117.404 309.474L110.445 315.063Z" fill="#504E62"/>
<path d="M139.183 289.952L140.037 308.874L143.94 315.673L137.961 319.106L134.057 312.307L118.148 302.028L124.947 298.125L133.451 304.22L132.475 293.803L139.183 289.952Z" fill="#504E62"/>
<path d="M180.072 288.401C179.546 287.846 178.904 287.472 178.146 287.278C177.41 287.08 176.587 287.079 175.674 287.277C173.987 287.643 172.772 288.48 172.029 289.787C171.308 291.089 171.148 292.664 171.549 294.511C171.999 296.586 172.856 298.06 174.119 298.932C175.401 299.776 177.033 299.983 179.017 299.553C181.366 299.043 182.812 297.619 183.355 295.281L176.617 296.742L175.571 291.92L188.09 289.204L189.499 295.703C189.252 297.094 188.736 298.459 187.953 299.799C187.192 301.134 186.115 302.335 184.722 303.401C183.325 304.444 181.635 305.181 179.651 305.611C177.234 306.135 174.979 306.087 172.886 305.466C170.812 304.818 169.061 303.682 167.634 302.057C166.226 300.405 165.261 298.382 164.742 295.987C164.228 293.616 164.272 291.398 164.875 289.333C165.495 287.241 166.618 285.481 168.242 284.054C169.862 282.605 171.88 281.618 174.297 281.094C177.33 280.436 179.997 280.621 182.297 281.651C184.598 282.68 186.262 284.408 187.29 286.835L180.072 288.401Z" fill="#504E62"/>
<path d="M212.207 298.26L203.458 298.39L202.188 302.434L194.979 302.542L203.605 277.736L211.514 277.618L220.841 302.156L213.597 302.264L212.207 298.26ZM210.414 293.036L207.635 285.096L205.129 293.115L210.414 293.036Z" fill="#504E62"/>
<path d="M236.329 279.481L232.009 303.775L225.255 302.574L229.575 278.28L236.329 279.481Z" fill="#504E62"/>
<path d="M258.785 312.977L252.353 310.593L248.58 294.487L243.788 307.418L237.355 305.033L245.931 281.897L252.364 284.281L256.075 300.55L260.929 287.456L267.361 289.84L258.785 312.977Z" fill="#504E62"/>
<path d="M280.375 307.064C281.806 305.103 283.483 303.655 285.407 302.72C287.364 301.779 289.406 301.435 291.533 301.686C293.674 301.919 295.724 302.751 297.685 304.181C300.173 305.996 301.777 308.192 302.497 310.768C303.231 313.325 303.011 315.923 301.837 318.562L295.871 314.209C296.063 313.194 295.983 312.254 295.631 311.391C295.298 310.541 294.716 309.814 293.887 309.209C292.605 308.274 291.241 307.986 289.794 308.346C288.38 308.701 287.116 309.642 286.002 311.168C284.874 312.714 284.351 314.224 284.431 315.698C284.544 317.166 285.241 318.368 286.523 319.303C287.352 319.908 288.222 320.24 289.133 320.298C290.063 320.37 290.982 320.159 291.89 319.666L297.856 324.019C295.702 325.942 293.289 326.954 290.616 327.055C287.957 327.137 285.383 326.27 282.895 324.455C280.934 323.025 279.509 321.335 278.62 319.387C277.745 317.42 277.449 315.37 277.734 313.238C278.051 311.101 278.931 309.043 280.375 307.064Z" fill="#504E62"/>
<path d="M306.595 344.443L301.321 337.462L297.307 338.827L292.961 333.074L318.071 325.376L322.839 331.687L308.553 353.711L304.186 347.931L306.595 344.443ZM309.75 339.91L314.514 332.977L306.564 335.693L309.75 339.91Z" fill="#504E62"/>
<path d="M314.1 366.004C312.906 363.394 312.541 360.97 313.005 358.731C313.49 356.482 314.86 354.765 317.115 353.579L320.157 360.231C319.401 360.654 318.935 361.15 318.759 361.718C318.582 362.286 318.64 362.888 318.931 363.525C319.193 364.098 319.545 364.502 319.985 364.736C320.457 364.982 320.948 364.989 321.457 364.756C322.115 364.455 322.483 363.914 322.563 363.134C322.642 362.354 322.589 361.172 322.404 359.589C322.222 357.902 322.145 356.5 322.173 355.384C322.233 354.279 322.542 353.188 323.101 352.111C323.692 351.046 324.698 350.188 326.119 349.538C327.562 348.878 328.958 348.675 330.306 348.931C331.676 349.177 332.917 349.815 334.03 350.845C335.143 351.876 336.068 353.198 336.806 354.81C338 357.42 338.335 359.781 337.813 361.893C337.322 364.016 335.997 365.636 333.839 366.751L330.738 359.972C331.407 359.64 331.82 359.195 331.975 358.636C332.139 358.099 332.081 357.523 331.8 356.908C331.586 356.441 331.273 356.122 330.862 355.951C330.45 355.78 329.99 355.811 329.48 356.044C329.056 356.238 328.757 356.567 328.585 357.031C328.443 357.506 328.367 358.042 328.357 358.636C328.368 359.221 328.422 360.069 328.519 361.179C328.681 362.824 328.727 364.214 328.656 365.35C328.617 366.497 328.312 367.599 327.743 368.654C327.205 369.722 326.278 370.556 324.963 371.158C323.626 371.769 322.272 371.978 320.9 371.784C319.538 371.612 318.258 371.03 317.061 370.038C315.873 369.068 314.886 367.723 314.1 366.004Z" fill="#504E62"/>
<path d="M350.773 394.89L326.822 400.826L325.172 394.168L334.786 391.785L332.774 383.666L323.16 386.048L321.509 379.39L345.46 373.454L347.11 380.112L338.107 382.344L340.12 390.463L349.122 388.232L350.773 394.89Z" fill="#504E62"/>
<path d="M215.243 346.219L214.943 345.841C214.745 345.592 214.702 345.255 214.844 344.965L214.846 344.962C215.045 344.554 215.538 344.384 215.948 344.585L215.95 344.586C216.359 344.786 216.529 345.28 216.329 345.69L215.243 346.219ZM215.243 346.219L215.706 346.145C215.976 346.102 216.207 345.938 216.329 345.691L215.243 346.219ZM196.859 346.219L197.159 345.842C197.357 345.592 197.4 345.255 197.258 344.964L196.859 346.219ZM196.859 346.219L196.396 346.145C196.127 346.102 195.895 345.938 195.773 345.69L195.773 345.69C195.573 345.281 195.742 344.786 196.152 344.586L196.155 344.585M196.859 346.219L196.155 344.585M196.155 344.585C196.563 344.384 197.057 344.553 197.258 344.964L196.155 344.585ZM211.159 352.218L212.132 352.656L212.976 353.223C216.315 355.463 218.508 359.265 218.508 363.579C218.508 366.536 217.479 369.248 215.758 371.383H196.343C194.623 369.248 193.594 366.536 193.594 363.579C193.594 359.265 195.786 355.463 199.126 353.223L199.975 352.654L200.942 352.218C202.502 351.516 204.229 351.123 206.051 351.123C207.873 351.123 209.6 351.516 211.159 352.218Z" stroke="#504E62" stroke-width="3"/>
<path d="M186.421 379.073L186.421 379.073C188.755 377.906 189.198 376.717 189.191 375.845C189.181 374.771 188.499 373.485 187.361 372.228L187.361 372.228C184.379 368.932 177.503 364.129 169.821 359.863C162.146 355.601 153.979 352.05 148.508 351.099L148.507 351.099C146.996 350.835 144.87 350.85 143.409 351.82C142.16 352.648 140.886 354.542 141.818 359.303L186.421 379.073ZM186.421 379.073C184.223 380.172 179.359 382.333 173.772 383.565C168.144 384.807 162.047 385.048 157.19 382.62M186.421 379.073L157.19 382.62M157.19 382.62C152.286 380.167 148.601 375.28 146.029 370.399M157.19 382.62L146.029 370.399M146.029 370.399C143.469 365.54 142.133 360.916 141.818 359.303L146.029 370.399Z" stroke="#504E62" stroke-width="3"/>
<path d="M166.036 390.811C176.345 390.811 186.441 386.142 189.253 384.736C189.84 384.442 190.47 384.108 191.1 383.725C191.017 384.277 190.915 384.81 190.832 385.225C190.416 387.301 188.937 392.165 186.521 397.16C184.084 402.2 180.83 407.082 176.991 409.506C174.007 411.39 170.442 411.996 167.278 411.523C164.093 411.047 161.514 409.517 160.255 407.36C159.013 405.23 158.736 402.388 159.478 399.294C160.171 396.403 161.738 393.387 164.075 390.746C164.714 390.787 165.367 390.811 166.036 390.811Z" stroke="#504E62" stroke-width="3"/>
<path d="M263.598 351.099L263.597 351.099C258.125 352.05 249.959 355.601 242.284 359.863C234.601 364.129 227.725 368.932 224.744 372.228L223.631 371.221L224.744 372.228C223.607 373.485 222.924 374.771 222.914 375.845C222.906 376.717 223.349 377.906 225.683 379.073L263.598 351.099ZM263.598 351.099C265.109 350.835 267.235 350.85 268.696 351.82C269.945 352.648 271.218 354.542 270.287 359.303C269.972 360.915 268.636 365.539 266.076 370.399C263.504 375.28 259.819 380.167 254.915 382.62M263.598 351.099L254.915 382.62M254.915 382.62C250.057 385.048 243.96 384.807 238.332 383.565M254.915 382.62L238.332 383.565M238.332 383.565C232.745 382.332 227.881 380.172 225.683 379.073L238.332 383.565Z" stroke="#504E62" stroke-width="3"/>
<path d="M221.274 385.224L221.274 385.224C221.689 387.299 223.168 392.164 225.585 397.16C228.022 402.199 231.277 407.082 235.115 409.505L235.115 409.505C238.099 411.39 241.664 411.996 244.827 411.523C248.012 411.047 250.592 409.517 251.85 407.36C253.092 405.23 253.37 402.388 252.628 399.294C251.935 396.402 250.368 393.387 248.031 390.746C247.392 390.787 246.739 390.811 246.069 390.811C235.762 390.811 225.666 386.143 222.853 384.736L221.274 385.224ZM221.274 385.224C221.191 384.809 221.089 384.277 221.006 383.724M221.274 385.224L221.006 383.724M221.006 383.724C221.637 384.108 222.267 384.442 222.853 384.736L221.006 383.724Z" stroke="#504E62" stroke-width="3"/>
<path d="M196.414 385.182V377.047H215.68V385.182H196.414Z" stroke="#504E62" stroke-width="3"/>
<path d="M219.224 398.637H192.871C193.578 396.853 194.354 395.276 195.065 394.001C195.773 392.733 196.378 391.836 196.76 391.336H215.335C215.718 391.836 216.323 392.733 217.031 394.001C217.742 395.275 218.517 396.853 219.224 398.637Z" stroke="#504E62" stroke-width="3"/>
<path d="M221.407 413.086L221.407 413.085C221.618 411.603 221.66 410.104 221.571 408.617H190.528C190.439 410.104 190.481 411.602 190.692 413.085L221.407 413.086ZM221.407 413.086C221.266 414.085 221.079 415.028 220.854 415.921H191.247M221.407 413.086L191.247 415.921M191.247 415.921C191.022 415.027 190.834 414.084 190.692 413.085L191.247 415.921Z" stroke="#504E62" stroke-width="3"/>
<path d="M205.916 432.294L205.782 431.389L204.916 431.094C203.03 430.451 199.687 428.968 196.686 425.898H215.419C212.76 428.619 209.829 430.093 207.877 430.842L207.06 431.156L206.931 432.023L206.403 435.586L205.916 432.294Z" stroke="#504E62" stroke-width="3"/>
<defs>
<linearGradient id="paint0_linear_3237_27771" x1="0" y1="0" x2="206" y2="731" gradientUnits="userSpaceOnUse">
<stop stop-color="#FFCFBE"/>
<stop offset="1" stop-color="white"/>
</linearGradient>
</defs>
</svg>
